<mxfile host="app.diagrams.net" agent="Mozilla/5.0 (Windows NT 10.0; Win64; x64) AppleWebKit/537.36 (KHTML, like Gecko) Chrome/131.0.0.0 Safari/537.36" version="26.0.9">
  <diagram name="Pagina-1" id="lwUyj_aw_D_-bGKHLUCM">
    <mxGraphModel dx="1050" dy="522" grid="1" gridSize="10" guides="1" tooltips="1" connect="1" arrows="1" fold="1" page="1" pageScale="1" pageWidth="827" pageHeight="1169" math="0" shadow="0">
      <root>
        <mxCell id="0" />
        <mxCell id="1" parent="0" />
        <mxCell id="Y9yLIUD-37nui4umiaVQ-9" value="" style="edgeStyle=orthogonalEdgeStyle;rounded=0;orthogonalLoop=1;jettySize=auto;html=1;" edge="1" parent="1" source="Y9yLIUD-37nui4umiaVQ-1" target="Y9yLIUD-37nui4umiaVQ-8">
          <mxGeometry relative="1" as="geometry" />
        </mxCell>
        <mxCell id="Y9yLIUD-37nui4umiaVQ-1" value="START" style="ellipse;whiteSpace=wrap;html=1;" vertex="1" parent="1">
          <mxGeometry x="354" y="30" width="120" height="80" as="geometry" />
        </mxCell>
        <mxCell id="Y9yLIUD-37nui4umiaVQ-5" value="" style="edgeStyle=orthogonalEdgeStyle;rounded=0;orthogonalLoop=1;jettySize=auto;html=1;" edge="1" parent="1" source="Y9yLIUD-37nui4umiaVQ-2" target="Y9yLIUD-37nui4umiaVQ-4">
          <mxGeometry relative="1" as="geometry" />
        </mxCell>
        <mxCell id="Y9yLIUD-37nui4umiaVQ-2" value="READ N" style="shape=parallelogram;perimeter=parallelogramPerimeter;whiteSpace=wrap;html=1;fixedSize=1;" vertex="1" parent="1">
          <mxGeometry x="354" y="280" width="120" height="60" as="geometry" />
        </mxCell>
        <mxCell id="Y9yLIUD-37nui4umiaVQ-6" style="edgeStyle=orthogonalEdgeStyle;rounded=0;orthogonalLoop=1;jettySize=auto;html=1;exitX=1;exitY=0.5;exitDx=0;exitDy=0;entryX=1;entryY=0.5;entryDx=0;entryDy=0;" edge="1" parent="1" source="Y9yLIUD-37nui4umiaVQ-4" target="Y9yLIUD-37nui4umiaVQ-2">
          <mxGeometry relative="1" as="geometry">
            <Array as="points">
              <mxPoint x="580" y="450" />
              <mxPoint x="580" y="310" />
            </Array>
          </mxGeometry>
        </mxCell>
        <mxCell id="Y9yLIUD-37nui4umiaVQ-7" value="FALSE" style="edgeLabel;html=1;align=center;verticalAlign=middle;resizable=0;points=[];" vertex="1" connectable="0" parent="Y9yLIUD-37nui4umiaVQ-6">
          <mxGeometry x="-0.6921" y="2" relative="1" as="geometry">
            <mxPoint as="offset" />
          </mxGeometry>
        </mxCell>
        <mxCell id="Y9yLIUD-37nui4umiaVQ-12" value="" style="edgeStyle=orthogonalEdgeStyle;rounded=0;orthogonalLoop=1;jettySize=auto;html=1;" edge="1" parent="1" source="Y9yLIUD-37nui4umiaVQ-4" target="Y9yLIUD-37nui4umiaVQ-11">
          <mxGeometry relative="1" as="geometry" />
        </mxCell>
        <mxCell id="Y9yLIUD-37nui4umiaVQ-4" value="N &amp;gt; 0" style="rhombus;whiteSpace=wrap;html=1;" vertex="1" parent="1">
          <mxGeometry x="374" y="410" width="80" height="80" as="geometry" />
        </mxCell>
        <mxCell id="Y9yLIUD-37nui4umiaVQ-10" style="edgeStyle=orthogonalEdgeStyle;rounded=0;orthogonalLoop=1;jettySize=auto;html=1;exitX=0.5;exitY=1;exitDx=0;exitDy=0;entryX=0.5;entryY=0;entryDx=0;entryDy=0;" edge="1" parent="1" source="Y9yLIUD-37nui4umiaVQ-8" target="Y9yLIUD-37nui4umiaVQ-2">
          <mxGeometry relative="1" as="geometry" />
        </mxCell>
        <mxCell id="Y9yLIUD-37nui4umiaVQ-8" value="NUMERI_DIVISIBILI = 0" style="whiteSpace=wrap;html=1;" vertex="1" parent="1">
          <mxGeometry x="340" y="160" width="150" height="60" as="geometry" />
        </mxCell>
        <mxCell id="Y9yLIUD-37nui4umiaVQ-14" value="" style="edgeStyle=orthogonalEdgeStyle;rounded=0;orthogonalLoop=1;jettySize=auto;html=1;" edge="1" parent="1" source="Y9yLIUD-37nui4umiaVQ-11" target="Y9yLIUD-37nui4umiaVQ-13">
          <mxGeometry relative="1" as="geometry" />
        </mxCell>
        <mxCell id="Y9yLIUD-37nui4umiaVQ-11" value="I = 1" style="whiteSpace=wrap;html=1;" vertex="1" parent="1">
          <mxGeometry x="160" y="420" width="120" height="60" as="geometry" />
        </mxCell>
        <mxCell id="Y9yLIUD-37nui4umiaVQ-16" value="" style="edgeStyle=orthogonalEdgeStyle;rounded=0;orthogonalLoop=1;jettySize=auto;html=1;" edge="1" parent="1" source="Y9yLIUD-37nui4umiaVQ-13" target="Y9yLIUD-37nui4umiaVQ-15">
          <mxGeometry relative="1" as="geometry" />
        </mxCell>
        <mxCell id="Y9yLIUD-37nui4umiaVQ-13" value="READ J" style="shape=parallelogram;perimeter=parallelogramPerimeter;whiteSpace=wrap;html=1;fixedSize=1;" vertex="1" parent="1">
          <mxGeometry x="160" y="560" width="120" height="60" as="geometry" />
        </mxCell>
        <mxCell id="Y9yLIUD-37nui4umiaVQ-18" value="" style="edgeStyle=orthogonalEdgeStyle;rounded=0;orthogonalLoop=1;jettySize=auto;html=1;" edge="1" parent="1" source="Y9yLIUD-37nui4umiaVQ-15" target="Y9yLIUD-37nui4umiaVQ-17">
          <mxGeometry relative="1" as="geometry" />
        </mxCell>
        <mxCell id="Y9yLIUD-37nui4umiaVQ-19" value="TRUE" style="edgeLabel;html=1;align=center;verticalAlign=middle;resizable=0;points=[];" vertex="1" connectable="0" parent="Y9yLIUD-37nui4umiaVQ-18">
          <mxGeometry x="-0.1822" y="-3" relative="1" as="geometry">
            <mxPoint as="offset" />
          </mxGeometry>
        </mxCell>
        <mxCell id="Y9yLIUD-37nui4umiaVQ-23" style="edgeStyle=orthogonalEdgeStyle;rounded=0;orthogonalLoop=1;jettySize=auto;html=1;exitX=1;exitY=0.5;exitDx=0;exitDy=0;entryX=0;entryY=0.5;entryDx=0;entryDy=0;" edge="1" parent="1" source="Y9yLIUD-37nui4umiaVQ-15" target="Y9yLIUD-37nui4umiaVQ-22">
          <mxGeometry relative="1" as="geometry" />
        </mxCell>
        <mxCell id="Y9yLIUD-37nui4umiaVQ-24" value="FALSE" style="edgeLabel;html=1;align=center;verticalAlign=middle;resizable=0;points=[];" vertex="1" connectable="0" parent="Y9yLIUD-37nui4umiaVQ-23">
          <mxGeometry x="-0.2486" y="-1" relative="1" as="geometry">
            <mxPoint as="offset" />
          </mxGeometry>
        </mxCell>
        <mxCell id="Y9yLIUD-37nui4umiaVQ-15" value="J % N == 0" style="rhombus;whiteSpace=wrap;html=1;" vertex="1" parent="1">
          <mxGeometry x="180" y="690" width="80" height="80" as="geometry" />
        </mxCell>
        <mxCell id="Y9yLIUD-37nui4umiaVQ-21" value="" style="edgeStyle=orthogonalEdgeStyle;rounded=0;orthogonalLoop=1;jettySize=auto;html=1;" edge="1" parent="1" source="Y9yLIUD-37nui4umiaVQ-17" target="Y9yLIUD-37nui4umiaVQ-20">
          <mxGeometry relative="1" as="geometry" />
        </mxCell>
        <mxCell id="Y9yLIUD-37nui4umiaVQ-17" value="NUMERI_DIVISIBILI+= 1" style="whiteSpace=wrap;html=1;" vertex="1" parent="1">
          <mxGeometry x="120" y="860" width="200" height="60" as="geometry" />
        </mxCell>
        <mxCell id="Y9yLIUD-37nui4umiaVQ-30" style="edgeStyle=orthogonalEdgeStyle;rounded=0;orthogonalLoop=1;jettySize=auto;html=1;exitX=0.5;exitY=1;exitDx=0;exitDy=0;entryX=0.5;entryY=0;entryDx=0;entryDy=0;" edge="1" parent="1" source="Y9yLIUD-37nui4umiaVQ-20" target="Y9yLIUD-37nui4umiaVQ-29">
          <mxGeometry relative="1" as="geometry" />
        </mxCell>
        <mxCell id="Y9yLIUD-37nui4umiaVQ-20" value="I +=1" style="whiteSpace=wrap;html=1;" vertex="1" parent="1">
          <mxGeometry x="160" y="1000" width="120" height="60" as="geometry" />
        </mxCell>
        <mxCell id="Y9yLIUD-37nui4umiaVQ-28" value="" style="edgeStyle=orthogonalEdgeStyle;rounded=0;orthogonalLoop=1;jettySize=auto;html=1;" edge="1" parent="1" source="Y9yLIUD-37nui4umiaVQ-22" target="Y9yLIUD-37nui4umiaVQ-27">
          <mxGeometry relative="1" as="geometry" />
        </mxCell>
        <mxCell id="Y9yLIUD-37nui4umiaVQ-22" value="I +=1" style="whiteSpace=wrap;html=1;" vertex="1" parent="1">
          <mxGeometry x="354" y="700" width="120" height="60" as="geometry" />
        </mxCell>
        <mxCell id="Y9yLIUD-37nui4umiaVQ-34" style="edgeStyle=orthogonalEdgeStyle;rounded=0;orthogonalLoop=1;jettySize=auto;html=1;exitX=1;exitY=0.5;exitDx=0;exitDy=0;entryX=1;entryY=0.5;entryDx=0;entryDy=0;" edge="1" parent="1" source="Y9yLIUD-37nui4umiaVQ-27" target="Y9yLIUD-37nui4umiaVQ-13">
          <mxGeometry relative="1" as="geometry">
            <Array as="points">
              <mxPoint x="674" y="730" />
              <mxPoint x="674" y="590" />
            </Array>
          </mxGeometry>
        </mxCell>
        <mxCell id="Y9yLIUD-37nui4umiaVQ-35" value="FALSE" style="edgeLabel;html=1;align=center;verticalAlign=middle;resizable=0;points=[];" vertex="1" connectable="0" parent="Y9yLIUD-37nui4umiaVQ-34">
          <mxGeometry x="-0.761" y="-2" relative="1" as="geometry">
            <mxPoint as="offset" />
          </mxGeometry>
        </mxCell>
        <mxCell id="Y9yLIUD-37nui4umiaVQ-37" value="" style="edgeStyle=orthogonalEdgeStyle;rounded=0;orthogonalLoop=1;jettySize=auto;html=1;" edge="1" parent="1" source="Y9yLIUD-37nui4umiaVQ-27" target="Y9yLIUD-37nui4umiaVQ-36">
          <mxGeometry relative="1" as="geometry" />
        </mxCell>
        <mxCell id="Y9yLIUD-37nui4umiaVQ-40" value="TRUE" style="edgeLabel;html=1;align=center;verticalAlign=middle;resizable=0;points=[];" vertex="1" connectable="0" parent="Y9yLIUD-37nui4umiaVQ-37">
          <mxGeometry x="-0.7785" y="-1" relative="1" as="geometry">
            <mxPoint as="offset" />
          </mxGeometry>
        </mxCell>
        <mxCell id="Y9yLIUD-37nui4umiaVQ-27" value="I == 10" style="rhombus;whiteSpace=wrap;html=1;" vertex="1" parent="1">
          <mxGeometry x="574" y="690" width="80" height="80" as="geometry" />
        </mxCell>
        <mxCell id="Y9yLIUD-37nui4umiaVQ-31" style="edgeStyle=orthogonalEdgeStyle;rounded=0;orthogonalLoop=1;jettySize=auto;html=1;exitX=0;exitY=0.5;exitDx=0;exitDy=0;entryX=0;entryY=0.5;entryDx=0;entryDy=0;" edge="1" parent="1" source="Y9yLIUD-37nui4umiaVQ-29" target="Y9yLIUD-37nui4umiaVQ-13">
          <mxGeometry relative="1" as="geometry">
            <Array as="points">
              <mxPoint x="70" y="1150" />
              <mxPoint x="70" y="590" />
            </Array>
          </mxGeometry>
        </mxCell>
        <mxCell id="Y9yLIUD-37nui4umiaVQ-32" value="FALSE" style="edgeLabel;html=1;align=center;verticalAlign=middle;resizable=0;points=[];" vertex="1" connectable="0" parent="Y9yLIUD-37nui4umiaVQ-31">
          <mxGeometry x="-0.8119" y="-4" relative="1" as="geometry">
            <mxPoint as="offset" />
          </mxGeometry>
        </mxCell>
        <mxCell id="Y9yLIUD-37nui4umiaVQ-38" style="edgeStyle=orthogonalEdgeStyle;rounded=0;orthogonalLoop=1;jettySize=auto;html=1;exitX=1;exitY=0.5;exitDx=0;exitDy=0;entryX=0.5;entryY=1;entryDx=0;entryDy=0;" edge="1" parent="1" source="Y9yLIUD-37nui4umiaVQ-29" target="Y9yLIUD-37nui4umiaVQ-36">
          <mxGeometry relative="1" as="geometry" />
        </mxCell>
        <mxCell id="Y9yLIUD-37nui4umiaVQ-39" value="TRUE" style="edgeLabel;html=1;align=center;verticalAlign=middle;resizable=0;points=[];" vertex="1" connectable="0" parent="Y9yLIUD-37nui4umiaVQ-38">
          <mxGeometry x="-0.4854" relative="1" as="geometry">
            <mxPoint as="offset" />
          </mxGeometry>
        </mxCell>
        <mxCell id="Y9yLIUD-37nui4umiaVQ-29" value="I == 10" style="rhombus;whiteSpace=wrap;html=1;" vertex="1" parent="1">
          <mxGeometry x="180" y="1110" width="80" height="80" as="geometry" />
        </mxCell>
        <mxCell id="Y9yLIUD-37nui4umiaVQ-42" style="edgeStyle=orthogonalEdgeStyle;rounded=0;orthogonalLoop=1;jettySize=auto;html=1;exitX=1;exitY=0.5;exitDx=0;exitDy=0;entryX=0;entryY=0.5;entryDx=0;entryDy=0;" edge="1" parent="1" source="Y9yLIUD-37nui4umiaVQ-36" target="Y9yLIUD-37nui4umiaVQ-41">
          <mxGeometry relative="1" as="geometry" />
        </mxCell>
        <mxCell id="Y9yLIUD-37nui4umiaVQ-36" value="WRITE NUMERI_DIVISIBILI" style="shape=parallelogram;perimeter=parallelogramPerimeter;whiteSpace=wrap;html=1;fixedSize=1;" vertex="1" parent="1">
          <mxGeometry x="354" y="950" width="230" height="60" as="geometry" />
        </mxCell>
        <mxCell id="Y9yLIUD-37nui4umiaVQ-41" value="END" style="ellipse;whiteSpace=wrap;html=1;" vertex="1" parent="1">
          <mxGeometry x="654" y="940" width="120" height="80" as="geometry" />
        </mxCell>
      </root>
    </mxGraphModel>
  </diagram>
</mxfile>
